<?xml version="1.0" encoding="utf-8"?>
<!-- Generator: Avocode 2.6.0 - http://avocode.com -->
<svg height="102" width="102" xmlns:xlink="http://www.w3.org/1999/xlink" xmlns="http://www.w3.org/2000/svg" viewBox="0 0 102 102">
    <path stroke-linejoin="miter" stroke-linecap="butt" stroke-width="4" stroke="#fed136" fill="#ffffff" fill-rule="evenodd" d="M 51.03 4.94 C 76.64 4.94 97.41 25.7 97.41 51.31 C 97.41 76.92 76.64 97.68 51.03 97.68 C 25.42 97.68 4.66 76.92 4.66 51.31 C 4.66 25.7 25.42 4.94 51.03 4.94 Z" />
    <path fill="#fed136" fill-rule="evenodd" d="M 74.29 47 C 74.29 47 27.76 47 27.76 47 C 25.63 46.5 24.04 44.6 24.04 42.32 C 24.04 39.66 26.34 38 29 38 C 29 38 34.2 38 34.2 38 C 34.27 37.52 34.42 37.04 34.68 36.6 C 34.68 36.6 40.46 26.58 40.46 26.58 C 41.53 24.74 43.88 24.11 45.73 25.17 C 47.57 26.24 48.2 28.59 47.14 30.44 C 47.14 30.44 42.78 37.99 42.78 37.99 C 42.78 37.99 59.27 37.98 59.27 37.98 C 59.27 37.98 54.92 30.44 54.92 30.44 C 53.85 28.59 54.48 26.24 56.33 25.17 C 58.17 24.11 60.53 24.74 61.59 26.58 C 61.59 26.58 67.38 36.6 67.38 36.6 C 67.63 37.04 67.78 37.5 67.85 37.98 C 67.85 37.98 72.93 37.97 72.93 37.97 C 75.56 38.01 78.01 39.67 78.01 42.32 C 78.01 44.6 76.42 46.5 74.29 47 Z M 72 78 C 72 78 30 78 30 78 C 30 78 28.03 49 28.03 49 C 28.03 49 74.03 49 74.03 49 C 74.03 49 72 78 72 78 Z M 41.39 58.7 C 41.39 57.64 40.53 56.78 39.46 56.78 C 38.4 56.78 37.54 57.64 37.54 58.7 C 37.54 58.7 37.54 70.27 37.54 70.27 C 37.54 71.33 38.4 72.19 39.46 72.19 C 40.53 72.19 41.39 71.33 41.39 70.27 C 41.39 70.27 41.39 58.7 41.39 58.7 Z M 52.95 58.7 C 52.95 57.64 52.09 56.78 51.03 56.78 C 49.96 56.78 49.1 57.64 49.1 58.7 C 49.1 58.7 49.1 70.27 49.1 70.27 C 49.1 71.33 49.96 72.19 51.03 72.19 C 52.09 72.19 52.95 71.33 52.95 70.27 C 52.95 70.27 52.95 58.7 52.95 58.7 Z M 64.52 58.7 C 64.52 57.64 63.66 56.78 62.59 56.78 C 61.53 56.78 60.66 57.64 60.66 58.7 C 60.66 58.7 60.66 70.27 60.66 70.27 C 60.66 71.33 61.53 72.19 62.59 72.19 C 63.66 72.19 64.52 71.33 64.52 70.27 C 64.52 70.27 64.52 58.7 64.52 58.7 Z" />
</svg>