<?xml version="1.0" encoding="utf-8"?>
<!-- Generator: Avocode 2.6.0 - http://avocode.com -->
<svg height="102" width="102" xmlns:xlink="http://www.w3.org/1999/xlink" xmlns="http://www.w3.org/2000/svg" viewBox="0 0 102 102">
    <path stroke-linejoin="miter" stroke-linecap="butt" stroke-width="4" stroke="#fed136" fill="#ffffff" fill-rule="evenodd" d="M 50.92 4.95 C 76.53 4.95 97.29 25.71 97.29 51.32 C 97.29 76.93 76.53 97.69 50.92 97.69 C 25.31 97.69 4.55 76.93 4.55 51.32 C 4.55 25.71 25.31 4.95 50.92 4.95 Z" />
    <path fill="#fed136" fill-rule="evenodd" d="M 74 75 C 74 75 30 75 30 75 C 27.92 75 23.92 74.84 23.92 71.66 C 23.92 69.58 24.92 68 27 68 C 27 68 76.87 67.95 76.87 67.95 C 78.98 67.96 80.01 69.92 80 72 C 79.99 75.03 76.08 75 74 75 Z M 58 71 C 58 71 46.02 70.98 46.02 70.98 C 45.12 70.78 45.03 71.44 45 72 C 44.98 72.52 44.96 73 46 73 C 46 73 58 73 58 73 C 59.04 73 59 72.52 59 72 C 59 71.48 59.04 71 58 71 Z M 44.83 47.77 C 44.83 47.77 48.3 51.26 48.3 51.26 C 48.3 51.26 59.51 40.01 59.51 40.01 C 60.24 39.27 61.43 39.27 62.16 40.01 C 62.16 40.01 64.81 42.67 64.81 42.67 C 65.54 43.41 65.54 44.6 64.81 45.33 C 64.81 45.33 50.23 59.98 50.23 59.98 C 49.6 60.61 48.65 60.67 47.93 60.22 C 47.31 60.37 46.64 60.24 46.15 59.76 C 46.15 59.76 39.52 53.1 39.52 53.1 C 38.79 52.36 38.79 51.17 39.52 50.43 C 39.52 50.43 42.18 47.77 42.18 47.77 C 42.91 47.03 44.1 47.03 44.83 47.77 Z M 71.01 33.99 C 71.01 33.99 33 34 33 34 C 33 34 33 64 33 64 C 33 64 28 64 28 64 C 28 64 28 59 28 59 C 28 59 28 34 28 34 C 28 30.88 29.88 29 33 29 C 33 29 71 29 71 29 C 74.12 29 76 30.88 76 34 C 76 34 75.95 58.99 75.95 58.99 C 75.94 59.34 75.91 59.68 75.86 60 C 75.86 60 76 60 76 60 C 76 60 76 64 76 64 C 76 64 71.01 64 71.01 64 C 71.01 64 71.01 33.99 71.01 33.99 Z" />
</svg>