<?xml version="1.0" encoding="utf-8"?>
<!-- Generator: Avocode 2.6.0 - http://avocode.com -->
<svg height="102" width="102" xmlns:xlink="http://www.w3.org/1999/xlink" xmlns="http://www.w3.org/2000/svg" viewBox="0 0 102 102">
    <path stroke-linejoin="miter" stroke-linecap="butt" stroke-width="4" stroke="#fed136" fill="#ffffff" fill-rule="evenodd" d="M 50.95 4.94 C 76.56 4.94 97.32 25.7 97.32 51.31 C 97.32 76.92 76.56 97.68 50.95 97.68 C 25.34 97.68 4.58 76.92 4.58 51.31 C 4.58 25.7 25.34 4.94 50.95 4.94 Z" />
    <path fill="#fed136" fill-rule="evenodd" d="M 65 75 C 65 75 36 75 36 75 C 33.29 75 30.97 72.43 30.97 69.73 C 30.97 69.73 30.97 51.76 30.97 51.76 C 30.97 49.05 33.29 47 36 47 C 36 47 37 47 37 47 C 37 47 37 34 37 34 C 37 27.69 43.36 22.36 50.57 22.36 C 57.79 22.36 64 27.69 64 34 C 64 34 64 47 64 47 C 64 47 65 47 65 47 C 67.7 47.01 69.88 49.33 69.92 51.99 C 69.92 51.99 69.96 70.04 69.96 70.04 C 69.92 72.82 67.7 75.01 65 75 Z M 48 62.38 C 48 62.38 48 67 48 67 C 48 68.81 49.13 70 51 70 C 52.87 70 53 68.81 53 67 C 53 67 53 62.39 53 62.39 C 54.78 61.48 56.01 59.65 56.01 57.51 C 56.01 54.47 53.55 52.01 50.51 52.01 C 47.47 52.01 45.01 54.47 45.01 57.51 C 45.01 59.64 46.23 61.47 48 62.38 Z M 57 34 C 57 31.29 54.18 28.89 50.57 28.89 C 46.96 28.89 44 31.29 44 34 C 44 34 44 46 44 46 C 44 46.36 44.05 46.69 44.15 47 C 44.15 47 56.85 47 56.85 47 C 56.95 46.69 57 46.36 57 46 C 57 46 57 34 57 34 Z" />
</svg>